<svg width="24" height="24" viewBox="0 0 24 24" fill="none" xmlns="http://www.w3.org/2000/svg">
<circle cx="12" cy="12" r="12" fill="#2E2E2E"/>
<path d="M12.791 18H7.47363V5.31738H12.7383C13.8926 5.31738 14.8125 5.60449 15.498 6.17871C16.1836 6.75293 16.5264 7.52051 16.5264 8.48145C16.5264 9.16113 16.3037 9.76465 15.8584 10.292C15.4131 10.8193 14.8652 11.1357 14.2148 11.2412V11.3115C15.082 11.3936 15.7852 11.7188 16.3242 12.2871C16.8691 12.8555 17.1416 13.5586 17.1416 14.3965C17.1416 15.5156 16.7549 16.3975 15.9814 17.042C15.208 17.6807 14.1445 18 12.791 18ZM9.74121 7.08398V10.6611H11.8154C12.6064 10.6611 13.2158 10.5029 13.6436 10.1865C14.0713 9.86426 14.2852 9.40723 14.2852 8.81543C14.2852 8.26465 14.1006 7.83984 13.7314 7.54102C13.3682 7.23633 12.8467 7.08398 12.167 7.08398H9.74121ZM9.74121 16.2334H12.2725C13.1045 16.2334 13.7373 16.0635 14.1709 15.7236C14.6104 15.3838 14.8301 14.8887 14.8301 14.2383C14.8301 13.5938 14.6045 13.1045 14.1533 12.7705C13.708 12.4365 13.0488 12.2695 12.1758 12.2695H9.74121V16.2334Z" fill="white"/>
</svg>
