<svg width="100" height="100" viewBox="0 0 100 100" fill="none" xmlns="http://www.w3.org/2000/svg">
<g clip-path="url(#clip0_1676_1031)">
<path d="M50 100C77.6142 100 100 77.6142 100 50C100 22.3858 77.6142 0 50 0C22.3858 0 0 22.3858 0 50C0 77.6142 22.3858 100 50 100Z" fill="#FA5757"/>
<path d="M26.3308 77.665C25.57 77.665 24.8642 77.5413 24.2133 77.2938C23.5717 77.0463 23.0125 76.6979 22.5358 76.2488C22.0683 75.7996 21.7017 75.2725 21.4358 74.6675C21.1792 74.0625 21.0508 73.4025 21.0508 72.6875C21.0508 71.9725 21.1792 71.3125 21.4358 70.7075C21.7017 70.1025 22.0729 69.5754 22.5495 69.1263C23.0263 68.6771 23.5854 68.3288 24.227 68.0813C24.8688 67.8338 25.5654 67.71 26.317 67.71C27.0779 67.71 27.7745 67.8338 28.407 68.0813C29.0488 68.3288 29.6033 68.6771 30.0708 69.1263C30.5475 69.5754 30.9188 70.1025 31.1845 70.7075C31.4504 71.3034 31.5833 71.9634 31.5833 72.6875C31.5833 73.4025 31.4504 74.0671 31.1845 74.6813C30.9188 75.2863 30.5475 75.8134 30.0708 76.2625C29.6033 76.7025 29.0488 77.0463 28.407 77.2938C27.7745 77.5413 27.0825 77.665 26.3308 77.665ZM26.317 75.7675C26.7479 75.7675 27.142 75.6941 27.4995 75.5475C27.8663 75.4009 28.187 75.19 28.462 74.915C28.737 74.64 28.9479 74.3146 29.0945 73.9388C29.2504 73.5629 29.3283 73.1459 29.3283 72.6875C29.3283 72.2291 29.2504 71.8121 29.0945 71.4363C28.9479 71.0604 28.737 70.735 28.462 70.46C28.1963 70.185 27.88 69.9741 27.5133 69.8275C27.1467 69.6809 26.7479 69.6075 26.317 69.6075C25.8863 69.6075 25.4875 69.6809 25.1208 69.8275C24.7633 69.9741 24.447 70.185 24.172 70.46C23.897 70.735 23.6817 71.0604 23.5258 71.4363C23.3792 71.8121 23.3058 72.2291 23.3058 72.6875C23.3058 73.1366 23.3792 73.5538 23.5258 73.9388C23.6817 74.3146 23.8925 74.64 24.1583 74.915C24.4333 75.19 24.7542 75.4009 25.1208 75.5475C25.4875 75.6941 25.8863 75.7675 26.317 75.7675ZM34.1324 77.5V67.875H35.9749L41.6537 74.805H40.7599V67.875H42.9599V77.5H41.1312L35.4387 70.57H36.3324V77.5H34.1324ZM46.1122 77.5V67.875H48.3397V75.685H53.1659V77.5H46.1122ZM55.2854 77.5V67.875H57.5129V77.5H55.2854ZM60.6722 77.5V67.875H62.5147L68.1934 74.805H67.2997V67.875H69.4997V77.5H67.6709L61.9784 70.57H62.8722V77.5H60.6722ZM74.7007 71.7525H79.3344V73.485H74.7007V71.7525ZM74.8657 75.7125H80.1044V77.5H72.6519V67.875H79.9257V69.6625H74.8657V75.7125Z" fill="#F9F9F9"/>
<path d="M30 32.5C30 27.6675 33.9175 23.75 38.75 23.75H46.25V61.25H38.75C33.9175 61.25 30 57.3325 30 52.5V32.5Z" stroke="white" stroke-width="2"/>
<path d="M51.25 22.5H58.75C64.2729 22.5 68.75 26.9771 68.75 32.5V52.5C68.75 58.0229 64.2729 62.5 58.75 62.5H51.25V22.5Z" fill="white"/>
<path d="M60 47.5C62.0711 47.5 63.75 45.8211 63.75 43.75C63.75 41.6789 62.0711 40 60 40C57.9289 40 56.25 41.6789 56.25 43.75C56.25 45.8211 57.9289 47.5 60 47.5Z" fill="#FF2424"/>
<path d="M38.75 38.75C40.8211 38.75 42.5 37.0711 42.5 35C42.5 32.9289 40.8211 31.25 38.75 31.25C36.6789 31.25 35 32.9289 35 35C35 37.0711 36.6789 38.75 38.75 38.75Z" fill="white"/>
</g>
<defs>
<clipPath id="clip0_1676_1031">
<rect width="100" height="100" fill="white"/>
</clipPath>
</defs>
</svg>
