<svg width="44" height="44" viewBox="0 0 44 44" fill="none" xmlns="http://www.w3.org/2000/svg">
<rect x="5" y="7.82837" width="4" height="8" transform="rotate(-45 5 7.82837)" fill="#F0F0F0"/>
<rect x="7.82861" y="38.99" width="4" height="8" transform="rotate(-135 7.82861 38.99)" fill="#F0F0F0"/>
<rect x="20" y="36" width="4" height="8" fill="#F0F0F0"/>
<rect x="38.9902" y="36.1599" width="4" height="8" transform="rotate(135 38.9902 36.1599)" fill="#F0F0F0"/>
<rect x="36" y="24" width="4" height="8" transform="rotate(-90 36 24)" fill="#F0F0F0"/>
<rect x="33.3301" y="13.5" width="4" height="8" transform="rotate(-135 33.3301 13.5)" fill="#F0F0F0"/>
<rect x="20" width="4" height="8" fill="#F0F0F0"/>
<rect y="24" width="4" height="8" transform="rotate(-90 0 24)" fill="#F0F0F0"/>
<path d="M22 36C29.732 36 36 29.732 36 22C36 14.268 29.732 8 22 8C14.268 8 8 14.268 8 22C8 29.732 14.268 36 22 36Z" fill="white" fill-opacity="0.3" stroke="#F0F0F0" stroke-width="4"/>
</svg>
