<svg width="40" height="45" viewBox="0 0 40 45" fill="none" xmlns="http://www.w3.org/2000/svg">
<path d="M12.9404 5.28985C5.37726 8.14386 -0.00793457 15.5068 -0.00793457 24.1398C-0.00793457 35.2499 8.91081 44.2563 19.9126 44.2563C30.9145 44.2563 39.8332 35.2499 39.8332 24.1398C39.8332 15.5068 34.448 8.14386 26.8848 5.28985V9.66444C32.1922 12.2762 35.8491 17.7767 35.8491 24.1398C35.8491 33.0279 28.7141 40.233 19.9126 40.233C11.1112 40.233 3.97618 33.0279 3.97618 24.1398C3.97618 17.7767 7.63313 12.2762 12.9404 9.66444V5.28985Z" fill="#F0F0F0"/>
<path d="M17.9206 0H21.9047V21.1223H17.9206V0Z" fill="#F0F0F0"/>
</svg>
