<svg width="45" height="45" viewBox="0 0 45 45" fill="none" xmlns="http://www.w3.org/2000/svg">
<path fill-rule="evenodd" clip-rule="evenodd" d="M25.4886 33.3859H36.163C38.0884 33.3859 39.6491 31.8098 39.6491 29.8655V8.74316C39.6491 6.7989 38.0884 5.22277 36.163 5.22277H9.27026C7.34494 5.22277 5.78416 6.7989 5.78416 8.74316V29.8655C5.78416 31.8098 7.34494 33.3859 9.27026 33.3859H19.3343L22.558 38.121L25.4886 33.3859ZM21.3505 40.0719L21.3517 40.07ZM27.6968 37.4092H36.163C40.2887 37.4092 43.6333 34.0318 43.6333 29.8655V8.74316C43.6333 4.57689 40.2887 1.19946 36.163 1.19946H9.27026C5.14458 1.19946 1.80005 4.57689 1.80005 8.74316V29.8655C1.80005 34.0318 5.14458 37.4092 9.27026 37.4092H17.2385L20.5655 42.2961C21.5814 43.7882 23.7787 43.7397 24.7291 42.2043L27.6968 37.4092Z" fill="#FC5835"/>
<path fill-rule="evenodd" clip-rule="evenodd" d="M39.6491 21.1551H5.78416V17.1318H39.6491V21.1551ZM22.7167 29.1303H9.76828V25.107H22.7167V29.1303Z" fill="#FC5835"/>
</svg>
