<svg width="45" height="33" viewBox="0 0 45 33" fill="none" xmlns="http://www.w3.org/2000/svg">
<path fill-rule="evenodd" clip-rule="evenodd" d="M40.6452 4.25182H4.78813V28.3916H40.6452V4.25182ZM0.804016 0.228516V32.4149H44.6293V0.228516H0.804016Z" fill="#19A1FF"/>
<path fill-rule="evenodd" clip-rule="evenodd" d="M24.3608 11.704C23.1339 9.08273 20.4917 7.2693 17.43 7.2693C13.1986 7.2693 9.76827 10.7333 9.76827 15.0064V32.4149H34.669V23.053C34.669 19.5038 32.3024 16.5127 29.0759 15.6012C28.4179 15.4153 27.724 15.3159 27.0072 15.3159C26.3262 15.3159 25.6784 15.4595 25.0918 15.7183V15.0064C25.0918 13.8251 24.8296 12.7055 24.3608 11.704ZM30.6849 28.3916V23.053C30.6849 21.0019 29.0383 19.3392 27.0072 19.3392C26.8855 19.3392 26.7799 19.364 26.6869 19.405L21.1077 21.8667V15.0064C21.1077 12.9553 19.4611 11.2926 17.43 11.2926C15.3989 11.2926 13.7524 12.9553 13.7524 15.0064V28.3916H30.6849Z" fill="#19A1FF"/>
</svg>
